# Blender v2.77 (sub 0) OBJ File: '591ea5129ed14852ae3d456843ea828d.blend'
# www.blender.org
mtllib apple.mtl
o Maçã.003_Cone.003
v 0.013337 0.322935 0.022395
v 0.096810 0.302839 0.055234
v 0.162893 0.318396 0.064239
v 0.217512 0.357459 0.057529
v 0.248376 0.445226 0.018261
v 0.012785 0.324066 0.021638
v 0.090719 0.315327 0.046886
v 0.156029 0.332469 0.054831
v 0.211292 0.370211 0.049004
v 0.248132 0.445727 0.017926
v 0.011976 0.325726 0.020529
v 0.086949 0.323056 0.033719
v 0.149165 0.346542 0.045423
v 0.202880 0.387458 0.045474
v 0.248156 0.445677 0.017959
v 0.011166 0.327386 0.019419
v 0.078537 0.340303 0.030189
v 0.142302 0.360614 0.036015
v 0.197307 0.398885 0.029836
v 0.248090 0.445811 0.017869
v 0.010614 0.328518 0.018662
v 0.073219 0.351206 0.022900
v 0.135438 0.374687 0.026607
v 0.192376 0.408996 0.023076
v 0.248025 0.445945 0.017780
v 0.009547 0.330706 0.017200
v 0.067870 0.362175 0.021721
v 0.128574 0.388760 0.017200
v 0.188803 0.416321 0.014487
v 0.247602 0.446813 0.017200
v 0.008995 0.331838 0.016443
v 0.065031 0.367995 0.011676
v 0.121711 0.402832 0.007792
v 0.183672 0.426841 0.011146
v 0.247307 0.447417 0.016796
v 0.008057 0.333762 0.015157
v 0.059912 0.378490 0.000968
v 0.113418 0.419835 0.003810
v 0.177195 0.440121 0.002268
v 0.246934 0.448182 0.016285
v 0.006474 0.337006 0.012988
v 0.054524 0.389538 -0.002726
v 0.107983 0.430977 -0.011024
v 0.171490 0.451817 -0.005551
v 0.246422 0.449233 0.015582
v 0.005149 0.339722 0.011172
v 0.048304 0.402290 -0.011251
v 0.101120 0.445050 -0.020432
v 0.165657 0.463777 -0.013546
v 0.245998 0.450100 0.015002
v 0.005275 0.182785 0.033820
v 0.003451 0.182785 0.033640
v 0.001697 0.182785 0.033108
v 0.000080 0.182785 0.032244
v -0.001337 0.182785 0.031081
v -0.002500 0.182785 0.029664
v -0.003364 0.182785 0.028047
v -0.003896 0.182785 0.026293
v -0.004076 0.182785 0.024469
v 0.005535 0.368342 0.023162
v -0.003896 0.182785 0.022645
v -0.003364 0.182785 0.020891
v -0.002500 0.182785 0.019274
v -0.001337 0.182785 0.017857
v 0.000080 0.182785 0.016694
v 0.001697 0.182785 0.015830
v 0.003451 0.182785 0.015298
v 0.005275 0.182785 0.015118
v 0.007099 0.182785 0.015298
v 0.008853 0.182785 0.015830
v 0.010470 0.182785 0.016694
v 0.011887 0.182785 0.017857
v 0.013050 0.182785 0.019274
v 0.013914 0.182785 0.020891
v 0.014446 0.182785 0.022645
v 0.014626 0.182785 0.024469
v 0.014446 0.182785 0.026293
v 0.013914 0.182785 0.028047
v 0.013050 0.182785 0.029664
v 0.011887 0.182785 0.031081
v 0.010470 0.182785 0.032244
v 0.008853 0.182785 0.033108
v 0.007099 0.182785 0.033640
v 0.003545 -0.195043 0.021350
v 0.168498 -0.069032 0.141193
v -0.059460 -0.069032 0.215263
v -0.200347 -0.069031 0.021350
v -0.067364 -0.061125 -0.208874
v 0.196235 -0.061125 -0.123224
v 0.078348 0.174650 0.239590
v -0.185252 0.174650 0.153940
v -0.185252 0.174650 -0.123224
v 0.078348 0.174650 -0.208874
v 0.241263 0.174649 0.015358
v 0.005492 0.216273 0.015358
v -0.033488 -0.160998 0.135328
v 0.100501 -0.160998 0.091791
v 0.063468 -0.086930 0.205771
v 0.197458 -0.086930 0.021350
v 0.100501 -0.160998 -0.049092
v -0.116300 -0.160998 0.021350
v -0.153334 -0.086930 0.135328
v -0.033488 -0.160998 -0.092629
v -0.153334 -0.086930 -0.092629
v 0.074784 -0.081822 -0.197898
v 0.256191 0.056763 0.096814
v 0.256191 0.056763 -0.066098
v 0.005492 0.056763 0.278959
v 0.160433 0.056763 0.228615
v -0.245208 0.056763 0.096814
v -0.149449 0.056763 0.228615
v -0.149449 0.056763 -0.197899
v -0.245208 0.056763 -0.066098
v 0.160433 0.056763 -0.197899
v 0.005492 0.056763 -0.248243
v 0.186899 0.195347 0.147157
v -0.063801 0.195348 0.228614
v -0.218740 0.195347 0.015358
v -0.063801 0.195348 -0.197898
v 0.186899 0.195347 -0.116442
v 0.048315 0.273691 0.147157
v 0.144075 0.273690 0.015358
v -0.106624 0.273690 0.096814
v -0.106624 0.273690 -0.066098
v 0.048315 0.273691 -0.116441
v 0.004812 0.293048 0.026795
v 0.004870 0.330613 0.026507
v 0.004667 0.309494 0.027526
v 0.004464 0.288376 0.028545
v 0.004262 0.267258 0.029564
v 0.004059 0.246140 0.030583
v 0.003856 0.225021 0.031602
v 0.003653 0.203903 0.032621
vn 0.2898 0.0564 0.9554
vn 0.2092 0.0528 0.9764
vn 0.4707 0.0556 0.8806
vn 0.6334 0.0546 0.7719
vn 0.7719 0.0535 0.6335
vn 0.8807 0.0522 0.4708
vn 0.9557 0.0508 0.2899
vn 0.9940 0.0494 0.0979
vn 0.9940 0.0480 -0.0979
vn 0.9559 0.0467 -0.2900
vn 0.8810 0.0455 -0.4709
vn 0.7722 0.0446 -0.6338
vn 0.6338 0.0438 -0.7723
vn 0.4710 0.0432 -0.8811
vn 0.2900 0.0430 -0.9561
vn 0.0979 0.0430 -0.9943
vn -0.0979 0.0432 -0.9943
vn -0.2900 0.0438 -0.9560
vn -0.4709 0.0446 -0.8810
vn -0.6337 0.0455 -0.7722
vn -0.7722 0.0467 -0.6337
vn -0.8809 0.0480 -0.4709
vn -0.9558 0.0494 -0.2899
vn -0.9939 0.0508 -0.0979
vn -0.9938 0.0522 0.0979
vn -0.9556 0.0535 0.2899
vn -0.8806 0.0546 0.4707
vn -0.7718 0.0556 0.6334
vn -0.6334 0.0564 0.7718
vn -0.4706 0.0569 0.8805
vn 0.0979 0.0569 0.9936
vn -0.5670 0.0528 0.8221
vn 0.0000 -1.0000 -0.0000
vn -0.2258 0.4629 0.8572
vn -0.0810 0.8206 0.5657
vn -0.3066 0.6084 0.7320
vn -0.1700 0.3043 0.9373
vn 0.1996 0.2878 0.9367
vn -0.1748 0.1534 0.9726
vn -0.2259 0.2758 0.9343
vn -0.3633 0.5566 0.7471
vn -0.4419 0.6398 0.6287
vn -0.1309 0.1334 0.9824
vn -0.1291 0.3321 0.9344
vn -0.2479 0.5499 0.7976
vn -0.3485 0.6184 0.7044
vn -0.4134 0.7011 0.5810
vn -0.2632 0.6058 0.7508
vn -0.1684 0.3877 0.9063
vn -0.1658 0.2410 0.9563
vn -0.3032 0.5814 0.7550
vn -0.2422 0.3626 0.8999
vn -0.1307 0.3328 0.9339
vn -0.0633 0.3521 0.9338
vn -0.3441 0.4972 0.7965
vn -0.2260 0.6282 0.7445
vn 0.1024 -0.9435 0.3151
vn 0.7002 -0.6617 0.2680
vn -0.2680 -0.9435 0.1947
vn -0.2680 -0.9435 -0.1947
vn 0.1024 -0.9435 -0.3151
vn 0.8317 -0.4834 0.2732
vn 0.0029 -0.4529 0.8915
vn -0.8419 -0.4648 0.2743
vn -0.6827 -0.4197 -0.5981
vn 0.5346 -0.3304 -0.7779
vn 0.7620 -0.3359 0.5536
vn -0.2941 -0.3065 0.9053
vn -0.9419 -0.3359 0.0000
vn -0.3066 -0.1256 -0.9435
vn 0.8026 -0.1256 -0.5831
vn 0.3894 0.6888 0.6115
vn -0.4613 0.6888 0.5593
vn -0.6745 0.6888 -0.2659
vn 0.0444 0.6888 -0.7236
vn 0.7019 0.6888 -0.1814
vn -0.3688 0.8901 0.2679
vn 0.4634 0.8197 -0.3367
vn 0.3894 0.6888 -0.6115
vn 0.1409 0.8901 0.4335
vn -0.1770 0.8197 -0.5447
vn -0.4613 0.6888 -0.5593
vn 0.4558 0.8901 0.0000
vn -0.5728 0.8197 0.0000
vn -0.6745 0.6888 0.2659
vn 0.1409 0.8901 -0.4335
vn -0.1770 0.8197 0.5447
vn 0.0444 0.6888 0.7236
vn -0.3688 0.8901 -0.2679
vn 0.4634 0.8197 0.3367
vn 0.7019 0.6888 0.1814
vn 0.8897 0.3304 -0.3151
vn 0.7947 0.1876 -0.5773
vn 0.5746 0.3304 -0.7488
vn -0.0247 0.3304 -0.9435
vn -0.3035 0.1876 -0.9342
vn -0.5346 0.3304 -0.7779
vn -0.9050 0.3304 -0.2680
vn -0.9822 0.1876 0.0000
vn -0.9050 0.3304 0.2680
vn -0.5346 0.3304 0.7779
vn -0.3035 0.1876 0.9342
vn -0.0247 0.3304 0.9435
vn 0.5746 0.3304 0.7488
vn 0.7947 0.1876 0.5773
vn 0.8897 0.3304 0.3151
vn 0.3066 0.1256 -0.9435
vn 0.3035 -0.1876 -0.9342
vn 0.0247 -0.3304 -0.9435
vn -0.8026 0.1256 -0.5831
vn -0.7489 -0.3784 -0.5441
vn -0.8334 -0.4834 -0.2678
vn -0.8026 0.1256 0.5831
vn -0.7613 -0.3385 0.5531
vn -0.5264 -0.4529 0.7196
vn 0.3066 0.1256 0.9435
vn 0.2908 -0.3385 0.8949
vn 0.5199 -0.4648 0.7167
vn 0.9921 0.1256 0.0000
vn 0.9257 -0.3784 0.0000
vn 0.9039 -0.4197 -0.0826
vn 0.4264 -0.7659 -0.4812
vn 0.1576 -0.8602 -0.4849
vn -0.0621 -0.7659 -0.6399
vn -0.4552 -0.7366 -0.5002
vn -0.4911 -0.7947 -0.3568
vn -0.7240 -0.6617 -0.1947
vn -0.7240 -0.6617 0.1947
vn -0.4911 -0.7947 0.3568
vn -0.4089 -0.6617 0.6284
vn 0.6623 -0.7366 -0.1371
vn 0.6071 -0.7947 0.0000
vn 0.3313 -0.9435 0.0000
vn -0.0385 -0.6617 0.7488
vn 0.1876 -0.7947 0.5773
vn 0.4713 -0.6617 0.5831
usemtl Material.009
s off
f 82//1 60//1 83//1
f 51//2 60//2 126//2 127//2 128//2 129//2 130//2 131//2 132//2 133//2 52//2
f 81//3 60//3 82//3
f 80//4 60//4 81//4
f 79//5 60//5 80//5
f 78//6 60//6 79//6
f 77//7 60//7 78//7
f 76//8 60//8 77//8
f 75//9 60//9 76//9
f 74//10 60//10 75//10
f 73//11 60//11 74//11
f 72//12 60//12 73//12
f 71//13 60//13 72//13
f 70//14 60//14 71//14
f 69//15 60//15 70//15
f 68//16 60//16 69//16
f 67//17 60//17 68//17
f 66//18 60//18 67//18
f 65//19 60//19 66//19
f 64//20 60//20 65//20
f 63//21 60//21 64//21
f 62//22 60//22 63//22
f 61//23 60//23 62//23
f 59//24 60//24 61//24
f 58//25 60//25 59//25
f 57//26 60//26 58//26
f 56//27 60//27 57//27
f 55//28 60//28 56//28
f 54//29 60//29 55//29
f 53//30 60//30 54//30
f 83//31 60//31 51//31
f 52//32 133//32 132//32 131//32 130//32 129//32 128//32 127//32 126//32 60//32 53//32
f 51//33 52//33 53//33 54//33 55//33 56//33 57//33 58//33 59//33 61//33 62//33 63//33 64//33 65//33 66//33 67//33 68//33 69//33 70//33 71//33 72//33 73//33 74//33 75//33 76//33 77//33 78//33 79//33 80//33 81//33 82//33 83//33
usemtl FolhaMaca.003
f 1//34 2//34 7//34 6//34
f 2//34 3//34 8//34 7//34
f 3//34 4//34 9//34 8//34
f 4//34 5//34 10//34 9//34
f 6//35 7//35 12//35 11//35
f 7//36 8//36 13//36 12//36
f 8//37 9//37 14//37 13//37
f 9//38 10//38 15//38 14//38
f 11//39 12//39 17//39 16//39
f 12//40 13//40 18//40 17//40
f 13//41 14//41 19//41 18//41
f 14//42 15//42 20//42 19//42
f 16//34 17//34 22//34 21//34
f 17//34 18//34 23//34 22//34
f 18//34 19//34 24//34 23//34
f 19//34 20//34 25//34 24//34
f 21//43 22//43 27//43 26//43
f 22//44 23//44 28//44 27//44
f 23//45 24//45 29//45 28//45
f 24//46 25//46 30//46 29//46
f 26//47 27//47 32//47 31//47
f 27//48 28//48 33//48 32//48
f 28//49 29//49 34//49 33//49
f 29//50 30//50 35//50 34//50
f 31//51 32//51 37//51 36//51
f 32//52 33//52 38//52 37//52
f 33//53 34//53 39//53 38//53
f 34//34 35//34 40//34 39//34
f 36//54 37//54 42//54 41//54
f 37//55 38//55 43//55 42//55
f 38//56 39//56 44//56 43//56
f 39//34 40//34 45//34 44//34
f 41//34 42//34 47//34 46//34
f 42//34 43//34 48//34 47//34
f 43//34 44//34 49//34 48//34
f 44//34 45//34 50//34 49//34
usemtl Material.010
f 84//57 97//57 96//57
f 85//58 97//58 99//58
f 84//59 96//59 101//59
f 84//60 101//60 103//60
f 84//61 103//61 100//61
f 85//62 99//62 106//62
f 86//63 98//63 108//63
f 87//64 102//64 110//64
f 88//65 104//65 112//65
f 89//66 105//66 114//66
f 85//67 106//67 109//67
f 86//68 108//68 111//68
f 87//69 110//69 113//69
f 88//70 112//70 115//70
f 89//71 114//71 107//71
f 90//72 116//72 121//72
f 91//73 117//73 123//73
f 92//74 118//74 124//74
f 93//75 119//75 125//75
f 94//76 120//76 122//76
f 122//77 125//77 95//77
f 122//78 120//78 125//78
f 120//79 93//79 125//79
f 125//80 124//80 95//80
f 125//81 119//81 124//81
f 119//82 92//82 124//82
f 124//83 123//83 95//83
f 124//84 118//84 123//84
f 118//85 91//85 123//85
f 123//86 121//86 95//86
f 123//87 117//87 121//87
f 117//88 90//88 121//88
f 121//89 122//89 95//89
f 121//90 116//90 122//90
f 116//91 94//91 122//91
f 107//92 120//92 94//92
f 107//93 114//93 120//93
f 114//94 93//94 120//94
f 115//95 119//95 93//95
f 115//96 112//96 119//96
f 112//97 92//97 119//97
f 113//98 118//98 92//98
f 113//99 110//99 118//99
f 110//100 91//100 118//100
f 111//101 117//101 91//101
f 111//102 108//102 117//102
f 108//103 90//103 117//103
f 109//104 116//104 90//104
f 109//105 106//105 116//105
f 106//106 94//106 116//106
f 114//107 115//107 93//107
f 114//108 105//108 115//108
f 105//109 88//109 115//109
f 112//110 113//110 92//110
f 112//111 104//111 113//111
f 104//112 87//112 113//112
f 110//113 111//113 91//113
f 110//114 102//114 111//114
f 102//115 86//115 111//115
f 108//116 109//116 90//116
f 108//117 98//117 109//117
f 98//118 85//118 109//118
f 106//119 107//119 94//119
f 106//120 99//120 107//120
f 99//121 89//121 107//121
f 100//122 105//122 89//122
f 100//123 103//123 105//123
f 103//124 88//124 105//124
f 103//125 104//125 88//125
f 103//126 101//126 104//126
f 101//127 87//127 104//127
f 101//128 102//128 87//128
f 101//129 96//129 102//129
f 96//130 86//130 102//130
f 99//131 100//131 89//131
f 99//132 97//132 100//132
f 97//133 84//133 100//133
f 96//134 98//134 86//134
f 96//135 97//135 98//135
f 97//136 85//136 98//136
