# Blender v2.77 (sub 0) OBJ File: ''
# www.blender.org
mtllib bannana2.mtl
o Cylinder.001
v -0.003524 0.154156 0.388216
v -0.000000 0.196343 0.468469
v 0.015150 0.191251 0.472136
v 0.027866 0.144718 0.391140
v -0.032849 0.142796 0.397907
v -0.000000 0.238479 0.526655
v 0.015291 0.233338 0.530355
v -0.000000 0.123364 0.338517
v 0.021425 0.178956 0.480987
v -0.045972 0.104322 0.338517
v -0.015150 0.191251 0.472136
v 0.021625 0.220928 0.539289
v -0.015291 0.233338 0.530355
v 0.045972 0.104322 0.338517
v 0.042932 0.120012 0.404967
v -0.065014 0.058350 0.338517
v -0.042932 0.117294 0.414537
v 0.015150 0.166660 0.489838
v 0.015291 0.208518 0.548224
v -0.021425 0.178956 0.480987
v -0.021625 0.220928 0.539289
v -0.000000 0.203378 0.551924
v -0.000000 0.116781 0.208437
v 0.067275 0.088915 0.208437
v -0.067275 0.088915 0.208437
v -0.095141 0.021640 0.208437
v -0.000000 0.161568 0.493505
v -0.015150 0.166660 0.489838
v -0.015291 0.208518 0.548224
v -0.000000 0.106115 0.056717
v 0.075034 0.075034 0.056717
v 0.065014 0.058350 0.338517
v 0.095141 0.021640 0.208437
v -0.075034 0.075034 0.056717
v 0.032849 0.094509 0.421597
v -0.106115 0.000000 0.056717
v -0.067275 -0.045635 0.208437
v -0.045972 0.012378 0.338517
v -0.027866 0.092588 0.428364
v -0.000000 0.102733 -0.020929
v 0.072643 0.072643 -0.020929
v 0.106115 -0.000000 0.056717
v 0.045972 0.012378 0.338517
v 0.067275 -0.045635 0.208437
v -0.072643 0.072643 -0.020929
v -0.102733 0.000000 -0.020929
v -0.075034 -0.075034 0.056717
v -0.000000 -0.073501 0.208437
v -0.000000 -0.006664 0.338517
v 0.003524 0.083150 0.431288
v 0.102733 -0.000000 -0.020929
v 0.075034 -0.075034 0.056717
v -0.072643 -0.072643 -0.020929
v -0.000000 -0.106115 0.056717
v 0.072643 -0.072643 -0.020929
v -0.000000 -0.102733 -0.020929
vn 0.3238 0.8366 -0.4419
vn 0.3827 0.7483 -0.5419
vn 0.8882 0.4469 -0.1066
vn -0.3817 0.7951 -0.4713
vn -0.4227 0.8058 -0.4147
vn 0.9239 0.3091 -0.2257
vn -0.3827 0.7483 -0.5419
vn 0.3165 0.8087 -0.4958
vn -0.9258 0.3761 -0.0364
vn 0.9239 -0.3121 0.2215
vn -0.0000 0.5843 0.8116
vn -0.9239 0.3091 -0.2257
vn 0.3823 0.9229 -0.0467
vn -0.3823 0.9229 -0.0467
vn -0.9187 0.3806 0.1054
vn -0.9279 0.3720 -0.0264
vn 0.3827 -0.7513 0.5377
vn -0.9239 -0.3121 0.2215
vn 0.3819 0.9219 -0.0648
vn 0.9187 0.3806 0.1054
vn 0.9035 0.4245 -0.0589
vn -0.3819 0.9219 -0.0648
vn 0.9152 -0.1416 0.3774
vn -0.9238 0.3827 0.0122
vn -0.8794 -0.3643 0.3065
vn -0.8308 -0.3106 0.4619
vn -0.3827 -0.7513 0.5377
vn 0.4213 -0.5592 0.7140
vn -0.8618 -0.2156 0.4593
vn 0.3824 0.9231 -0.0402
vn 0.9238 0.3827 0.0122
vn 0.8794 -0.3643 0.3065
vn 0.8620 -0.2484 0.4419
vn -0.3824 0.9231 -0.0402
vn -0.9231 0.3824 -0.0402
vn -0.9171 -0.3799 0.1205
vn -0.3457 -0.8346 0.4288
vn -0.2913 -0.5920 0.7515
vn 0.9231 0.3824 -0.0402
vn 0.9171 -0.3799 0.1205
vn 0.3457 -0.8346 0.4288
vn -0.9231 -0.3824 -0.0402
vn -0.3754 -0.9062 0.1948
vn -0.2781 -0.6864 0.6720
vn 0.9231 -0.3824 -0.0402
vn 0.3754 -0.9062 0.1948
vn 0.3518 -0.6596 0.6642
vn -0.3824 -0.9231 -0.0402
vn 0.3824 -0.9231 -0.0402
vn -0.0000 -0.0000 -1.0000
usemtl None
s off
f 4//1 1//1 2//1 3//1
f 3//2 2//2 6//2 7//2
f 3//3 9//3 15//3 4//3
f 5//4 1//4 8//4 10//4
f 11//5 2//5 1//5 5//5
f 9//6 3//6 7//6 12//6
f 2//7 11//7 13//7 6//7
f 14//8 8//8 1//8 4//8
f 5//9 17//9 20//9 11//9
f 18//10 9//10 12//10 19//10
f 12//11 7//11 6//11 13//11 21//11 29//11 22//11 19//11
f 11//12 20//12 21//12 13//12
f 23//13 8//13 14//13 24//13
f 25//14 10//14 8//14 23//14
f 26//15 16//15 10//15 25//15
f 17//16 5//16 10//16 16//16
f 27//17 18//17 19//17 22//17
f 20//18 28//18 29//18 21//18
f 30//19 23//19 24//19 31//19
f 24//20 14//20 32//20 33//20
f 32//21 14//21 4//21 15//21
f 34//22 25//22 23//22 30//22
f 35//23 15//23 9//23 18//23
f 36//24 26//24 25//24 34//24
f 37//25 38//25 16//25 26//25
f 16//26 38//26 39//26 17//26
f 28//27 27//27 22//27 29//27
f 18//28 27//28 50//28 35//28
f 28//29 20//29 17//29 39//29
f 40//30 30//30 31//30 41//30
f 31//31 24//31 33//31 42//31
f 33//32 32//32 43//32 44//32
f 15//33 35//33 43//33 32//33
f 45//34 34//34 30//34 40//34
f 46//35 36//35 34//35 45//35
f 47//36 37//36 26//36 36//36
f 48//37 49//37 38//37 37//37
f 39//38 50//38 27//38 28//38
f 41//39 31//39 42//39 51//39
f 42//40 33//40 44//40 52//40
f 44//41 43//41 49//41 48//41
f 53//42 47//42 36//42 46//42
f 54//43 48//43 37//43 47//43
f 38//44 49//44 50//44 39//44
f 51//45 42//45 52//45 55//45
f 52//46 44//46 48//46 54//46
f 49//47 43//47 35//47 50//47
f 56//48 54//48 47//48 53//48
f 55//49 52//49 54//49 56//49
f 45//50 40//50 41//50 51//50 55//50 56//50 53//50 46//50
