# Blender v2.77 (sub 0) OBJ File: ''
# www.blender.org
mtllib bannana1.mtl
o Cylinder
v -0.025664 0.157831 -0.546389
v -0.000000 0.168045 -0.543447
v 0.025664 0.157831 -0.546389
v -0.025664 0.108508 -0.560596
v -0.000000 0.111167 -0.393449
v 0.057420 0.087383 -0.393449
v 0.025664 0.108508 -0.560596
v -0.036294 0.133169 -0.553493
v -0.057420 0.087383 -0.393449
v 0.081204 0.029963 -0.393449
v 0.036294 0.133169 -0.553493
v -0.000000 0.098293 -0.563539
v -0.081204 0.029963 -0.393449
v -0.070027 0.070027 -0.170151
v -0.000000 0.099033 -0.170151
v 0.070027 0.070027 -0.170151
v 0.099033 -0.000000 -0.170151
v 0.057420 -0.027457 -0.393449
v -0.000000 -0.051241 -0.393449
v -0.057420 -0.027457 -0.393449
v -0.099033 -0.000000 -0.170151
v -0.071541 0.071541 -0.056717
v -0.000000 0.101174 -0.056717
v 0.071541 0.071541 -0.056717
v 0.101174 -0.000000 -0.056717
v 0.070027 -0.070027 -0.170151
v -0.070027 -0.070027 -0.170151
v -0.101174 0.000000 -0.056717
v -0.072262 0.072262 -0.033298
v -0.000000 0.102194 -0.033298
v 0.072262 0.072262 -0.033298
v 0.102194 -0.000000 -0.033298
v 0.071541 -0.071541 -0.056717
v -0.000000 -0.099033 -0.170151
v -0.071541 -0.071541 -0.056717
v -0.102194 0.000000 -0.033298
v 0.072262 -0.072262 -0.033298
v -0.000000 -0.101174 -0.056717
v -0.072262 -0.072262 -0.033298
v -0.000000 -0.102194 -0.033298
vn 0.0000 0.2768 -0.9609
vn -0.3678 0.8704 0.3273
vn 0.3678 0.8704 0.3273
vn -0.3822 0.9227 0.0501
vn 0.3822 0.9227 0.0501
vn 0.9218 0.3874 -0.0108
vn 0.9236 0.3826 -0.0224
vn 0.8453 -0.3172 -0.4299
vn 0.3129 -0.7102 -0.6307
vn -0.3129 -0.7102 -0.6307
vn -0.8453 -0.3172 -0.4299
vn -0.9218 0.3874 -0.0108
vn -0.9236 0.3826 -0.0224
vn -0.3826 0.9237 -0.0174
vn 0.3826 0.9237 -0.0174
vn 0.9237 0.3826 -0.0174
vn 0.9167 -0.3797 -0.1241
vn -0.9167 -0.3797 -0.1241
vn -0.9237 0.3826 -0.0174
vn -0.3824 0.9231 -0.0402
vn 0.3824 0.9231 -0.0402
vn 0.9231 0.3824 -0.0402
vn 0.9237 -0.3826 -0.0174
vn 0.3754 -0.9063 -0.1940
vn -0.3754 -0.9063 -0.1940
vn -0.9237 -0.3826 -0.0174
vn -0.9231 0.3824 -0.0402
vn 0.9231 -0.3824 -0.0402
vn 0.3826 -0.9237 -0.0174
vn -0.3826 -0.9237 -0.0174
vn -0.9231 -0.3824 -0.0402
vn 0.3824 -0.9231 -0.0402
vn -0.3824 -0.9231 -0.0402
vn -0.0000 0.0000 1.0000
usemtl None
s off
f 2//1 3//1 11//1 7//1 12//1 4//1 8//1 1//1
f 2//2 1//2 9//2 5//2
f 3//3 2//3 5//3 6//3
f 9//4 14//4 15//4 5//4
f 5//5 15//5 16//5 6//5
f 11//6 3//6 6//6 10//6
f 6//7 16//7 17//7 10//7
f 7//8 11//8 10//8 18//8
f 12//9 7//9 18//9 19//9
f 4//10 12//10 19//10 20//10
f 20//11 13//11 8//11 4//11
f 13//12 9//12 1//12 8//12
f 13//13 21//13 14//13 9//13
f 14//14 22//14 23//14 15//14
f 15//15 23//15 24//15 16//15
f 16//16 24//16 25//16 17//16
f 10//17 17//17 26//17 18//17
f 20//18 27//18 21//18 13//18
f 21//19 28//19 22//19 14//19
f 22//20 29//20 30//20 23//20
f 23//21 30//21 31//21 24//21
f 24//22 31//22 32//22 25//22
f 17//23 25//23 33//23 26//23
f 18//24 26//24 34//24 19//24
f 19//25 34//25 27//25 20//25
f 27//26 35//26 28//26 21//26
f 28//27 36//27 29//27 22//27
f 25//28 32//28 37//28 33//28
f 26//29 33//29 38//29 34//29
f 34//30 38//30 35//30 27//30
f 35//31 39//31 36//31 28//31
f 33//32 37//32 40//32 38//32
f 38//33 40//33 39//33 35//33
f 36//34 39//34 40//34 37//34 32//34 31//34 30//34 29//34
