# Blender v2.77 (sub 0) OBJ File: ''
# www.blender.org
mtllib bomb.mtl
o Icosphere
v 0.033464 0.383797 -0.059582
v -0.030385 0.383797 -0.038836
v -0.030385 0.383797 0.028298
v 0.033464 0.383797 0.049044
v 0.072925 0.383796 -0.005269
v 0.015817 -0.308263 -0.005269
v 0.251126 -0.128504 0.165691
v -0.074062 -0.128505 0.271353
v -0.275042 -0.128503 -0.005269
v -0.074062 -0.128505 -0.281892
v 0.251126 -0.128504 -0.176230
v 0.105695 0.162358 0.271353
v -0.219493 0.162358 0.165691
v -0.219493 0.162358 -0.176230
v 0.105695 0.162358 -0.281892
v 0.306675 0.162357 -0.005269
v -0.037012 -0.259697 0.157324
v 0.154127 -0.259697 0.095218
v 0.101299 -0.154038 0.257813
v 0.292439 -0.154037 -0.005269
v 0.154127 -0.259697 -0.105756
v -0.155145 -0.259697 -0.005269
v -0.207976 -0.154037 0.157325
v -0.037012 -0.259697 -0.167862
v -0.207976 -0.154037 -0.167863
v 0.101299 -0.154038 -0.268351
v 0.325091 0.016927 0.095219
v 0.325091 0.016927 -0.105757
v 0.015817 0.016927 0.319921
v 0.206958 0.016927 0.257815
v -0.293458 0.016927 0.095219
v -0.175325 0.016927 0.257815
v -0.175325 0.016927 -0.268353
v -0.293458 0.016927 -0.105757
v 0.206958 0.016927 -0.268353
v 0.015817 0.016927 -0.330459
v 0.239609 0.187891 0.157325
v -0.069666 0.187891 0.257813
v -0.260806 0.187891 -0.005269
v -0.069666 0.187891 -0.268351
v 0.239609 0.187891 -0.167863
v 0.068645 0.293551 0.157324
v 0.186779 0.293550 -0.005269
v -0.122494 0.293551 0.095218
v -0.122494 0.293551 -0.105756
v 0.068645 0.293551 -0.167862
v 0.072925 0.319177 -0.005269
v 0.033463 0.319177 0.049044
v -0.030385 0.319177 0.028298
v -0.030385 0.319177 -0.038836
v 0.033463 0.319177 -0.059582
v 0.127712 0.293551 -0.086566
v -0.026924 0.293551 -0.136809
v -0.122494 0.293551 -0.005269
v -0.026924 0.293551 0.126271
v 0.127712 0.293551 0.076028
v 0.043903 0.385170 -0.005269
v 0.024495 0.385171 -0.031980
v -0.006906 0.385171 -0.021777
v -0.006906 0.385171 0.011239
v 0.024495 0.385171 0.021442
v 0.013368 0.473915 0.031899
v 0.035573 0.433544 0.014694
v 0.040907 0.433545 -0.017890
v 0.011567 0.433545 -0.033032
v -0.011900 0.433545 -0.009807
v 0.002936 0.433545 0.019689
v -0.009135 0.517724 0.057761
v 0.041669 0.477937 0.015377
v 0.034243 0.485547 -0.015881
v 0.001352 0.486228 -0.018678
v -0.011550 0.479039 0.010851
v 0.018612 0.513841 0.075230
v 0.042881 0.529779 0.059510
v 0.030133 0.543514 0.032326
v -0.002014 0.536064 0.031245
v -0.027737 0.559568 0.087080
v -0.012701 0.531232 0.094898
v 0.019649 0.537257 0.097609
v 0.024606 0.569317 0.091467
v -0.004680 0.583106 0.084959
v -0.001126 0.557729 0.098954
vn 0.0473 0.9983 -0.0343
vn -0.0584 0.9983 0.0000
vn 0.0473 0.9983 0.0343
vn -0.0181 0.9983 -0.0556
vn -0.0181 0.9983 0.0556
vn 0.1024 -0.9435 0.3151
vn 0.7002 -0.6617 0.2680
vn -0.2680 -0.9435 0.1947
vn -0.2680 -0.9435 -0.1947
vn 0.1024 -0.9435 -0.3151
vn 0.9050 -0.3304 0.2680
vn 0.0247 -0.3304 0.9435
vn -0.8897 -0.3304 0.3151
vn -0.5746 -0.3304 -0.7488
vn 0.5346 -0.3304 -0.7779
vn 0.8026 -0.1256 0.5831
vn -0.3066 -0.1256 0.9435
vn -0.9921 -0.1256 0.0000
vn -0.3066 -0.1256 -0.9435
vn 0.8026 -0.1256 -0.5831
vn 0.4089 0.6617 0.6284
vn -0.4713 0.6617 0.5831
vn -0.7002 0.6617 -0.2680
vn 0.0385 0.6617 -0.7488
vn 0.7240 0.6617 -0.1947
vn 0.2168 0.9634 -0.1575
vn 0.4911 0.7947 -0.3568
vn 0.4089 0.6617 -0.6284
vn -0.0828 0.9634 -0.2549
vn -0.1876 0.7947 -0.5773
vn -0.4713 0.6617 -0.5831
vn -0.2680 0.9634 0.0000
vn -0.6071 0.7947 0.0000
vn -0.7002 0.6617 0.2680
vn -0.0828 0.9634 0.2549
vn -0.1876 0.7947 0.5773
vn 0.0385 0.6617 0.7488
vn 0.2168 0.9634 0.1575
vn 0.4911 0.7947 0.3568
vn 0.7240 0.6617 0.1947
vn 0.8897 0.3304 -0.3151
vn 0.7947 0.1876 -0.5773
vn 0.5746 0.3304 -0.7488
vn -0.0247 0.3304 -0.9435
vn -0.3035 0.1876 -0.9342
vn -0.5346 0.3304 -0.7779
vn -0.9050 0.3304 -0.2680
vn -0.9822 0.1876 0.0000
vn -0.9050 0.3304 0.2680
vn -0.5346 0.3304 0.7779
vn -0.3035 0.1876 0.9342
vn -0.0247 0.3304 0.9435
vn 0.5746 0.3304 0.7488
vn 0.7947 0.1876 0.5773
vn 0.8897 0.3304 0.3151
vn 0.3066 0.1256 -0.9435
vn 0.3035 -0.1876 -0.9342
vn 0.0247 -0.3304 -0.9435
vn -0.8026 0.1256 -0.5831
vn -0.7947 -0.1876 -0.5773
vn -0.8897 -0.3304 -0.3151
vn -0.8026 0.1256 0.5831
vn -0.7947 -0.1876 0.5773
vn -0.5746 -0.3304 0.7488
vn 0.3066 0.1256 0.9435
vn 0.3035 -0.1876 0.9342
vn 0.5346 -0.3304 0.7779
vn 0.9921 0.1256 0.0000
vn 0.9822 -0.1876 0.0000
vn 0.9050 -0.3304 -0.2680
vn 0.4713 -0.6617 -0.5831
vn 0.1876 -0.7947 -0.5773
vn -0.0385 -0.6617 -0.7488
vn -0.4089 -0.6617 -0.6284
vn -0.4911 -0.7947 -0.3568
vn -0.7240 -0.6617 -0.1947
vn -0.7240 -0.6617 0.1947
vn -0.4911 -0.7947 0.3568
vn -0.4089 -0.6617 0.6284
vn 0.7002 -0.6617 -0.2680
vn 0.6071 -0.7947 0.0000
vn 0.3313 -0.9435 0.0000
vn -0.0385 -0.6617 0.7488
vn 0.1876 -0.7947 0.5773
vn 0.4713 -0.6617 0.5831
vn 0.8090 -0.0000 -0.5878
vn -0.3090 0.0000 0.9511
vn -0.3090 0.0000 -0.9511
vn 0.8090 -0.0000 0.5878
vn -1.0000 0.0000 0.0000
vn 0.0810 0.0000 -0.9967
vn -0.6514 -0.0000 0.7587
vn 0.9730 0.0000 -0.2309
vn -0.9229 0.0000 -0.3851
vn 0.5203 -0.0000 0.8540
vn 0.8235 -0.1216 0.5541
vn -0.3327 0.1873 -0.9242
vn -0.2800 -0.2109 0.9366
vn 0.7875 0.1242 -0.6036
vn -0.9995 -0.0068 0.0319
vn 0.9483 -0.2184 0.2305
vn -0.5639 0.5651 -0.6022
vn -0.0096 -0.7348 0.6782
vn 0.5733 0.5475 -0.6095
vn -0.9432 -0.2309 0.2390
vn -0.6619 -0.7226 0.1993
vn 0.9402 0.2901 0.1788
vn -0.8301 0.2614 -0.4925
vn 0.3995 -0.6426 0.6538
vn 0.1515 0.8355 -0.5283
vn -0.4051 0.0371 0.9135
vn -0.0596 -0.1255 0.9903
vn 0.2124 0.1521 0.9653
vn 0.0350 0.4864 0.8731
vn -0.3466 0.4153 0.8411
usemtl None
s off
f 5//1 1//1 58//1 57//1
f 2//2 3//2 60//2 59//2
f 4//3 5//3 57//3 61//3
f 1//4 2//4 59//4 58//4
f 3//5 4//5 61//5 60//5
f 6//6 18//6 17//6
f 7//7 18//7 20//7
f 6//8 17//8 22//8
f 6//9 22//9 24//9
f 6//10 24//10 21//10
f 7//11 20//11 27//11
f 8//12 19//12 29//12
f 9//13 23//13 31//13
f 10//14 25//14 33//14
f 11//15 26//15 35//15
f 7//16 27//16 30//16
f 8//17 29//17 32//17
f 9//18 31//18 34//18
f 10//19 33//19 36//19
f 11//20 35//20 28//20
f 12//21 37//21 42//21
f 13//22 38//22 44//22
f 14//23 39//23 45//23
f 15//24 40//24 46//24
f 16//25 41//25 43//25
f 43//26 52//26 47//26
f 43//27 41//27 46//27 52//27
f 41//28 15//28 46//28
f 46//29 53//29 51//29
f 46//30 40//30 45//30 53//30
f 40//31 14//31 45//31
f 45//32 54//32 50//32
f 45//33 39//33 44//33 54//33
f 39//34 13//34 44//34
f 44//35 55//35 49//35
f 44//36 38//36 42//36 55//36
f 38//37 12//37 42//37
f 42//38 56//38 48//38
f 42//39 37//39 43//39 56//39
f 37//40 16//40 43//40
f 28//41 41//41 16//41
f 28//42 35//42 41//42
f 35//43 15//43 41//43
f 36//44 40//44 15//44
f 36//45 33//45 40//45
f 33//46 14//46 40//46
f 34//47 39//47 14//47
f 34//48 31//48 39//48
f 31//49 13//49 39//49
f 32//50 38//50 13//50
f 32//51 29//51 38//51
f 29//52 12//52 38//52
f 30//53 37//53 12//53
f 30//54 27//54 37//54
f 27//55 16//55 37//55
f 35//56 36//56 15//56
f 35//57 26//57 36//57
f 26//58 10//58 36//58
f 33//59 34//59 14//59
f 33//60 25//60 34//60
f 25//61 9//61 34//61
f 31//62 32//62 13//62
f 31//63 23//63 32//63
f 23//64 8//64 32//64
f 29//65 30//65 12//65
f 29//66 19//66 30//66
f 19//67 7//67 30//67
f 27//68 28//68 16//68
f 27//69 20//69 28//69
f 20//70 11//70 28//70
f 21//71 26//71 11//71
f 21//72 24//72 26//72
f 24//73 10//73 26//73
f 24//74 25//74 10//74
f 24//75 22//75 25//75
f 22//76 9//76 25//76
f 22//77 23//77 9//77
f 22//78 17//78 23//78
f 17//79 8//79 23//79
f 20//80 21//80 11//80
f 20//81 18//81 21//81
f 18//82 6//82 21//82
f 17//83 19//83 8//83
f 17//84 18//84 19//84
f 18//85 7//85 19//85
f 47//86 51//86 1//86 5//86
f 48//38 56//38 47//38
f 56//38 43//38 47//38
f 49//87 48//87 4//87 3//87
f 49//35 55//35 48//35
f 55//35 42//35 48//35
f 51//88 50//88 2//88 1//88
f 50//32 54//32 49//32
f 54//32 44//32 49//32
f 48//89 47//89 5//89 4//89
f 51//29 53//29 50//29
f 53//29 45//29 50//29
f 50//90 49//90 3//90 2//90
f 47//26 52//26 51//26
f 52//26 46//26 51//26
f 58//91 59//91 65//91 64//91
f 60//92 61//92 67//92 66//92
f 57//93 58//93 64//93 63//93
f 59//94 60//94 66//94 65//94
f 61//95 57//95 63//95 67//95
f 63//96 64//96 69//96 62//96
f 65//97 66//97 71//97 70//97
f 67//98 63//98 62//98 72//98
f 64//99 65//99 70//99 69//99
f 66//100 67//100 72//100 71//100
f 69//101 70//101 74//101 73//101
f 71//102 72//102 76//102 75//102
f 62//103 69//103 73//103 68//103
f 70//104 71//104 75//104 74//104
f 72//105 62//105 68//105 76//105
f 68//106 73//106 78//106 77//106
f 74//107 75//107 80//107 79//107
f 76//108 68//108 77//108 81//108
f 73//109 74//109 79//109 78//109
f 75//110 76//110 81//110 80//110
f 77//111 78//111 82//111
f 78//112 79//112 82//112
f 79//113 80//113 82//113
f 80//114 81//114 82//114
f 81//115 77//115 82//115
